<svg width="68" height="62" viewBox="0 0 68 62" fill="none" xmlns="http://www.w3.org/2000/svg">
<path fill-rule="evenodd" clip-rule="evenodd" d="M33.9443 1.48C29.4643 1.48 25.8143 5.13 25.8143 9.62C25.8143 14.1 29.4643 17.75 33.9443 17.75C38.4343 17.75 42.0843 14.1 42.0843 9.62C42.0843 5.13 38.4343 1.48 33.9443 1.48ZM33.9443 19.23C28.6443 19.23 24.3343 14.92 24.3343 9.62C24.3343 4.32 28.6443 0 33.9443 0C39.2443 0 43.5643 4.32 43.5643 9.62C43.5643 14.92 39.2443 19.23 33.9443 19.23Z" fill="#BB2020"/>
<path fill-rule="evenodd" clip-rule="evenodd" d="M0.744306 59.35C0.474306 59.35 0.204306 59.2 0.0743061 58.93C-0.105694 58.57 0.0543061 58.12 0.414306 57.94C0.454306 57.92 2.85431 56.74 5.70431 54.49C8.33431 52.42 11.8943 49 13.9743 44.47C15.0443 42.13 15.5143 39.49 16.0043 36.7C16.6143 33.26 17.2443 29.7 19.0843 26.37L19.1043 26.33C21.1443 23.09 22.8843 20.96 28.1843 20.96H36.9143C37.3243 20.96 37.6543 21.29 37.6543 21.7C37.6543 22.11 37.3243 22.44 36.9143 22.44H28.1843C23.5443 22.44 22.1843 24.21 20.3743 27.1C18.6543 30.21 18.0443 33.64 17.4643 36.96C16.9543 39.85 16.4743 42.57 15.3143 45.09C13.1143 49.9 9.35431 53.5 6.59431 55.67C3.61431 58.02 1.17431 59.22 1.06431 59.27C0.964306 59.32 0.854306 59.35 0.744306 59.35Z" fill="#BB2020"/>
<path fill-rule="evenodd" clip-rule="evenodd" d="M67.1443 59.35C67.0343 59.35 66.9243 59.32 66.8243 59.27C66.7243 59.22 64.2843 58.02 61.2943 55.67C58.5343 53.5 54.7843 49.9 52.5743 45.09C51.4243 42.57 50.9443 39.85 50.4343 36.96C49.8443 33.64 49.2343 30.21 47.5243 27.1C45.7043 24.21 44.3443 22.44 39.7143 22.44H30.9743C30.5643 22.44 30.2343 22.11 30.2343 21.7C30.2343 21.29 30.5643 20.96 30.9743 20.96H39.7143C45.0143 20.96 46.7443 23.09 48.7843 26.33L48.8043 26.37C50.6543 29.7 51.2743 33.26 51.8843 36.7C52.3743 39.49 52.8443 42.13 53.9143 44.47C57.9143 53.19 67.3743 57.9 67.4743 57.94C67.8443 58.12 67.9943 58.57 67.8143 58.93C67.6843 59.2 67.4243 59.35 67.1443 59.35Z" fill="#BB2020"/>
<path fill-rule="evenodd" clip-rule="evenodd" d="M12.0243 61.57C8.4643 61.57 7.0643 60.29 6.5243 59.21C5.8243 57.83 6.2343 56.24 6.9043 55.35C8.6243 53.08 14.1943 52.37 19.7543 51.85C20.7943 51.75 21.9843 51.63 22.2143 51.55C22.3743 51.49 22.5543 51.44 22.7643 51.37C24.2943 50.88 27.1543 49.98 27.6043 47.53C28.1543 44.48 27.3543 42.04 26.0043 38.3C24.6443 34.54 23.9243 29.06 23.8943 28.82C23.8443 28.42 24.1343 28.05 24.5343 28C24.9443 27.94 25.3143 28.23 25.3643 28.63C25.3743 28.69 26.0943 34.19 27.3943 37.8C28.8343 41.78 29.6643 44.44 29.0543 47.79C28.4543 51.12 24.9143 52.24 23.2143 52.78C23.0143 52.84 22.8443 52.9 22.7143 52.94C22.3243 53.08 21.5243 53.16 19.8943 53.32C16.5343 53.64 9.5543 54.3 8.0843 56.24C7.7643 56.67 7.4043 57.68 7.8443 58.55C8.3543 59.57 9.9043 60.11 12.1943 60.09C15.4843 60.04 20.1643 59.3 24.6843 58.57C31.3443 57.51 37.0843 56.59 39.1643 57.65C39.5343 57.84 39.6743 58.28 39.4843 58.65C39.3043 59.01 38.8543 59.16 38.4943 58.97C36.8443 58.12 30.5043 59.14 24.9243 60.03C20.3443 60.76 15.6143 61.52 12.2143 61.56C12.1543 61.57 12.0843 61.57 12.0243 61.57Z" fill="#BB2020"/>
<path fill-rule="evenodd" clip-rule="evenodd" d="M55.7943 61.57C55.7343 61.57 55.6643 61.57 55.6043 61.56C51.7043 61.52 46.0443 59.86 40.5643 58.26C37.6943 57.42 34.9743 56.63 32.7543 56.15C29.9243 55.54 28.8543 55.65 28.4443 55.86C28.0843 56.05 27.6343 55.91 27.4443 55.54C27.2643 55.18 27.4043 54.73 27.7643 54.55C29.6143 53.6 33.9943 54.8 40.9843 56.84C46.1143 58.34 51.9243 60.04 55.6243 60.09C57.9143 60.11 59.4643 59.57 59.9743 58.55C60.4143 57.68 60.0543 56.67 59.7343 56.24C58.2543 54.3 51.2743 53.64 47.9243 53.32C46.2943 53.16 45.4843 53.08 45.1043 52.94C44.9743 52.9 44.8043 52.84 44.6043 52.78C42.9043 52.24 39.3643 51.12 38.7643 47.79C38.1543 44.44 38.9843 41.78 40.4243 37.8C41.7243 34.19 42.4443 28.69 42.4543 28.63C42.5043 28.23 42.8743 27.94 43.2843 28C43.6843 28.05 43.9743 28.42 43.9243 28.82C43.8943 29.06 43.1743 34.54 41.8143 38.3C40.4643 42.04 39.6643 44.48 40.2143 47.53C40.6643 49.98 43.5143 50.88 45.0543 51.37C45.2643 51.44 45.4443 51.49 45.6043 51.55C45.8343 51.63 47.0243 51.75 48.0643 51.85C53.6243 52.37 59.1843 53.08 60.9143 55.35C61.5843 56.24 61.9943 57.83 61.2943 59.21C60.7543 60.29 59.3543 61.57 55.7943 61.57Z" fill="#BB2020"/>
</svg>
