<svg width="162" height="42" viewBox="0 0 162 42" fill="none" xmlns="http://www.w3.org/2000/svg">
<path d="M18.5914 4.59379L12.2708 20.1436L6.03411 4.56583L1 25.4294H3.32128L6.5515 11.9911L12.2568 26.1845L18.0321 11.9632L21.2763 25.4294H23.5975L18.5914 4.59379ZM29.4147 23.178V16.2841H37.4134V14.0327H29.4147V7.26467H39.3431V5.0133H27.1634V25.4294H39.3431V23.178H29.4147ZM44.6569 23.178V7.26467H49.3973C51.5788 7.26467 53.4526 8.03377 55.0048 9.59993C56.5709 11.1521 57.354 13.0259 57.354 15.2214C57.354 17.4168 56.5709 19.2906 55.0048 20.8428C53.4526 22.395 51.5788 23.1641 49.3973 23.178H44.6569ZM49.3834 25.4294C50.7677 25.4294 52.0962 25.1637 53.3547 24.6183C54.5713 24.101 55.648 23.3738 56.5989 22.4229C57.5358 21.486 58.2769 20.4093 58.7803 19.1927C59.3257 17.9202 59.6054 16.5917 59.6054 15.2214C59.6054 13.837 59.3257 12.5085 58.7803 11.25C58.2769 10.0334 57.5498 8.9427 56.5989 8.0058C55.662 7.06889 54.5713 6.32776 53.3547 5.82435C52.0962 5.27899 50.7677 5.0133 49.3834 5.0133H42.5454V25.4294H49.3834ZM62.8496 25.4294V5.0133H65.101V25.4294H62.8496ZM67.8278 5.0133V7.26467H75.1552V25.4294H77.3926V7.26467H84.6361V5.0133H67.8278ZM86.9993 19.4164L90.3973 10.9843L93.7954 19.4164H86.9993ZM90.3973 4.99932L82.147 25.4294H84.5662L86.0764 21.6538H94.7183L96.2425 25.4294H98.6617L90.3973 4.99932ZM111.541 23.5696C109.233 23.5696 107.262 22.7445 105.626 21.1085C103.989 19.4724 103.164 17.5007 103.164 15.1934C103.164 12.8861 103.989 10.9144 105.626 9.26432C107.262 7.64222 109.233 6.81719 111.541 6.81719C113.135 6.81719 114.603 7.2367 115.945 8.07572C117.26 8.87278 118.267 9.96351 118.98 11.3339L121.021 10.4529C120.141 8.691 118.854 7.27865 117.19 6.21589C115.456 5.13915 113.582 4.59379 111.541 4.59379C110.114 4.59379 108.744 4.87347 107.429 5.41883C106.157 5.96419 105.038 6.7193 104.059 7.69816C103.08 8.67701 102.311 9.7957 101.78 11.0682C101.221 12.3827 100.955 13.7531 100.955 15.1934C100.955 16.6197 101.221 18.0041 101.78 19.3046C102.311 20.5771 103.08 21.6958 104.059 22.6886C105.038 23.6535 106.157 24.4226 107.429 24.954C108.744 25.5133 110.114 25.779 111.541 25.779C113.582 25.779 115.456 25.2476 117.19 24.1569C118.854 23.1081 120.141 21.6958 121.021 19.9338L118.98 19.0529C118.267 20.4093 117.26 21.486 115.945 22.3111C114.603 23.1501 113.135 23.5696 111.541 23.5696ZM105.667 28.9673V26.7998H117.218V28.9673H105.667ZM127.622 19.4164L131.02 10.9843L134.432 19.4164H127.622ZM131.02 4.99932L122.769 25.4294H125.189L126.713 21.6538H135.341L136.865 25.4294H139.284L131.02 4.99932ZM126.098 1H135.942V3.16746H126.098V1ZM151.03 6.81719C148.709 6.81719 146.737 7.64222 145.101 9.26432C143.465 10.9144 142.64 12.8861 142.64 15.1934C142.64 17.5007 143.465 19.4724 145.101 21.1085C146.737 22.7445 148.709 23.5696 151.03 23.5696C153.338 23.5696 155.309 22.7445 156.945 21.1085C158.581 19.4724 159.407 17.5007 159.407 15.1934C159.407 12.8861 158.581 10.9144 156.945 9.26432C155.309 7.64222 153.338 6.81719 151.03 6.81719ZM151.03 25.779C149.59 25.779 148.206 25.5133 146.905 24.954C145.633 24.4226 144.514 23.6535 143.535 22.6886C142.57 21.6958 141.801 20.5771 141.256 19.3186C140.696 18.0041 140.417 16.6197 140.417 15.1934C140.417 13.7531 140.696 12.3827 141.256 11.0822C141.801 9.80969 142.57 8.67701 143.535 7.69816C144.514 6.7193 145.633 5.96419 146.905 5.43281C148.206 4.87347 149.59 4.59379 151.03 4.59379C152.471 4.59379 153.841 4.87347 155.142 5.43281C156.4 5.96419 157.533 6.7193 158.512 7.69816C159.49 8.67701 160.246 9.80969 160.791 11.0822C161.35 12.3827 161.616 13.7531 161.616 15.1934C161.616 16.6197 161.35 18.0041 160.791 19.3186C160.246 20.5771 159.49 21.6958 158.512 22.6886C157.533 23.6535 156.4 24.4226 155.142 24.954C153.841 25.5133 152.471 25.779 151.03 25.779Z" fill="#FEFEFE" stroke="#FEFEFE" stroke-width="0.0762"/>
<path d="M93.2639 42V33.5259H96.4662C97.0255 33.5259 97.459 33.5539 97.7527 33.6098C98.1722 33.6798 98.5218 33.8056 98.8015 34.0014C99.0811 34.1972 99.3189 34.4628 99.4867 34.8124C99.6545 35.162 99.7384 35.5536 99.7384 35.9731C99.7384 36.6862 99.5146 37.3015 99.0532 37.7909C98.5917 38.2944 97.7667 38.5461 96.5641 38.5461H94.3966V42H93.2639ZM94.3966 37.5532H96.5781C97.3052 37.5532 97.8226 37.4134 98.1302 37.1477C98.4239 36.868 98.5777 36.4905 98.5777 36.001C98.5777 35.6515 98.4938 35.3438 98.312 35.0921C98.1302 34.8404 97.8925 34.6726 97.5989 34.5887C97.4171 34.5467 97.0675 34.5188 96.5641 34.5188H94.3966V37.5532ZM99.3608 42L102.605 33.5259H103.836L107.29 42H106.017L105.038 39.427H101.458L100.549 42H99.3608ZM101.794 38.5181H104.689L103.794 36.1688C103.528 35.4557 103.332 34.8684 103.192 34.3929C103.08 34.9523 102.913 35.4976 102.717 36.029L101.794 38.5181ZM108.198 42V33.5259H111.96C112.715 33.5259 113.289 33.5959 113.68 33.7497C114.072 33.9035 114.393 34.1692 114.631 34.5607C114.855 34.9383 114.981 35.3718 114.981 35.8332C114.981 36.4345 114.785 36.9379 114.393 37.3575C114.002 37.763 113.4 38.0287 112.589 38.1405C112.883 38.2804 113.121 38.4202 113.275 38.56C113.596 38.8677 113.904 39.2452 114.197 39.6927L115.666 42H114.267L113.135 40.2381C112.813 39.7207 112.547 39.3431 112.338 39.0635C112.114 38.7978 111.932 38.602 111.764 38.5041C111.596 38.3922 111.429 38.3223 111.247 38.2804C111.121 38.2524 110.925 38.2384 110.632 38.2384H109.331V42H108.198ZM109.331 37.2596H111.736C112.254 37.2596 112.645 37.2176 112.939 37.1057C113.219 36.9939 113.442 36.8261 113.596 36.6023C113.736 36.3646 113.82 36.1129 113.82 35.8332C113.82 35.4417 113.666 35.1061 113.386 34.8404C113.093 34.5887 112.631 34.4628 112.016 34.4628H109.331V37.2596ZM115.806 42L119.05 33.5259H120.294L123.734 42H122.462L121.483 39.427H117.917L116.994 42H115.806ZM118.239 38.5181H121.133L120.252 36.1688C119.973 35.4557 119.777 34.8684 119.637 34.3929C119.525 34.9523 119.371 35.4976 119.176 36.029L118.239 38.5181ZM129.677 42L126.405 33.5259H127.622L129.817 39.6787C129.999 40.1821 130.153 40.6436 130.265 41.0771C130.39 40.6017 130.544 40.1402 130.726 39.6787L133.005 33.5259H134.152L130.852 42H129.677ZM135.355 42V33.5259H136.473V42H135.355ZM140.864 42L137.592 33.5259H138.809L141.004 39.6787C141.186 40.1821 141.34 40.6436 141.452 41.0771C141.577 40.6017 141.731 40.1402 141.913 39.6787L144.192 33.5259H145.339L142.039 42H140.864ZM146.374 42V33.5259H152.499V34.5188H147.492V37.1197H152.177V38.1126H147.492V41.0072H152.694V42H146.374ZM154.275 42V33.5259H158.022C158.777 33.5259 159.351 33.5959 159.742 33.7497C160.148 33.9035 160.455 34.1692 160.693 34.5607C160.931 34.9383 161.043 35.3718 161.043 35.8332C161.043 36.4345 160.847 36.9379 160.455 37.3575C160.064 37.763 159.462 38.0287 158.651 38.1405C158.959 38.2804 159.183 38.4202 159.337 38.56C159.658 38.8677 159.966 39.2452 160.26 39.6927L161.728 42H160.329L159.211 40.2381C158.875 39.7207 158.609 39.3431 158.4 39.0635C158.19 38.7978 157.994 38.602 157.826 38.5041C157.659 38.3922 157.491 38.3223 157.309 38.2804C157.183 38.2524 156.987 38.2384 156.694 38.2384H155.393V42H154.275ZM155.393 37.2596H157.798C158.316 37.2596 158.707 37.2176 159.001 37.1057C159.295 36.9939 159.504 36.8261 159.658 36.6023C159.812 36.3646 159.882 36.1129 159.882 35.8332C159.882 35.4417 159.742 35.1061 159.448 34.8404C159.155 34.5887 158.693 34.4628 158.078 34.4628H155.393V37.2596Z" fill="#FEFEFE"/>
</svg>
